HIERARCHY
ROOT Hips
{
	OFFSET 14.658700 -1.743397 44.686901
	CHANNELS 6 Xposition Yposition Zposition Zrotation Xrotation Yrotation
	JOINT Chest
	{
		OFFSET -0.825500 0.895800 5.069500
		CHANNELS 6 Xposition Yposition Zposition Zrotation Xrotation Yrotation
		JOINT Chest2
		{
			OFFSET 0.000000 0.000000 4.622200
			CHANNELS 6 Xposition Yposition Zposition Zrotation Xrotation Yrotation
			JOINT Neck
			{
				OFFSET 0.000000 0.000001 10.755798
				CHANNELS 6 Xposition Yposition Zposition Zrotation Xrotation Yrotation
				JOINT Head
				{
					OFFSET 0.000000 0.000000 2.173897
					CHANNELS 6 Xposition Yposition Zposition Zrotation Xrotation Yrotation
					End Site
					{
						OFFSET 0.000000 0.000001 10.006599
					}
				}
			}
			JOINT LeftCollar
			{
				OFFSET 2.539400 -1.380899 6.761002
				CHANNELS 6 Xposition Yposition Zposition Zrotation Xrotation Yrotation
				JOINT LeftShoulder
				{
					OFFSET 5.407000 0.000000 0.000000
					CHANNELS 6 Xposition Yposition Zposition Zrotation Xrotation Yrotation
					JOINT LeftElbow
					{
						OFFSET 0.000000 -0.000001 -10.687000
						CHANNELS 6 Xposition Yposition Zposition Zrotation Xrotation Yrotation
						JOINT LeftWrist
						{
							OFFSET 0.000000 -0.000001 -13.346901
							CHANNELS 6 Xposition Yposition Zposition Zrotation Xrotation Yrotation
							End Site
							{
								OFFSET 0.000000 -0.000000 -2.173901
							}
						}
					}
				}
			}
			JOINT RightCollar
			{
				OFFSET -2.411400 -2.842699 7.518600
				CHANNELS 6 Xposition Yposition Zposition Zrotation Xrotation Yrotation
				JOINT RightShoulder
				{
					OFFSET -4.245500 0.000000 0.000000
					CHANNELS 6 Xposition Yposition Zposition Zrotation Xrotation Yrotation
					JOINT RightElbow
					{
						OFFSET 0.000000 -0.000001 -10.446701
						CHANNELS 6 Xposition Yposition Zposition Zrotation Xrotation Yrotation
						JOINT RightWrist
						{
							OFFSET 0.000000 -0.000001 -12.218899
							CHANNELS 6 Xposition Yposition Zposition Zrotation Xrotation Yrotation
							End Site
							{
								OFFSET 0.000000 0.000000 -2.173901
							}
						}
					}
				}
			}
		}
	}
	JOINT LeftHip
	{
		OFFSET 2.346700 0.301800 -2.502800
		CHANNELS 6 Xposition Yposition Zposition Zrotation Xrotation Yrotation
		JOINT LeftKnee
		{
			OFFSET 0.000000 -0.000002 -20.597000
			CHANNELS 6 Xposition Yposition Zposition Zrotation Xrotation Yrotation
			JOINT LeftAnkle
			{
				OFFSET 0.000000 -0.000001 -17.157499
				CHANNELS 6 Xposition Yposition Zposition Zrotation Xrotation Yrotation
				End Site
				{
					OFFSET 0.000000 -9.063900 0.000001
				}
			}
		}
	}
	JOINT RightHip
	{
		OFFSET -1.908600 -0.007900 -2.706001
		CHANNELS 6 Xposition Yposition Zposition Zrotation Xrotation Yrotation
		JOINT RightKnee
		{
			OFFSET 0.000000 -0.000002 -20.198500
			CHANNELS 6 Xposition Yposition Zposition Zrotation Xrotation Yrotation
			JOINT RightAnkle
			{
				OFFSET 0.000000 -0.000001 -17.295700
				CHANNELS 6 Xposition Yposition Zposition Zrotation Xrotation Yrotation
				End Site
				{
					OFFSET 0.000000 -8.113500 0.000001
				}
			}
		}
	}
}
MOTION
Frames: 8
Frame Time: 0.041667
60.676498 23.992506 17.694897 -1398.557840 13.441933 -14.025256 -0.825501 0.895800 5.069497 8.533114 -12.676684 -4.002939 -0.000005 0.000003 4.622198 -3.187508 -2.453591 0.259957 0.000000 0.000007 10.755795 35.893915 -51.355397 8.081553 0.000003 0.000004 2.173905 2.087298 -13.028657 3.241621 2.539403 -1.380898 6.761002 -8.686034 8.451093 -4.159477 5.407001 -0.000001 0.000003 83.505251 -120.374994 34.220330 -0.000001 0.000002 -10.687001 71.861616 -14.582917 48.413122 -0.000008 0.000004 -13.346890 7.987909 -5.911968 34.506693 -2.411398 -2.842700 7.518600 29.735416 22.698302 14.568659 -4.245499 -0.000006 -0.000008 -728.650154 -126.970157 -722.569155 0.000002 -0.000004 -10.446693 -57.518007 -25.724179 -70.276028 -0.000006 0.000004 -12.218900 -7.599008 -16.075824 -8.669937 2.346699 0.301803 -2.502802 126.622951 -28.830768 121.889329 -0.000000 0.000002 -20.597008 28.606664 181.949819 -40.190431 -0.000001 -0.000002 -17.157503 55.960604 -4.963519 34.170415 -1.908595 -0.007899 -2.706005 -170.633753 8.125992 -82.711590 0.000004 -0.000002 -20.198511 262.056409 -45.480946 -94.518514 0.000003 0.000002 -17.295704 -127.779275 -0.369062 -43.333234
60.621197 24.159103 17.576296 -1398.990819 13.004746 -13.588649 -0.825492 0.895804 5.069500 8.003275 -10.920475 -4.190108 -0.000005 -0.000001 4.622193 -3.341813 -2.471990 0.270025 0.000005 0.000006 10.755802 34.461248 -50.160219 7.178889 0.000003 0.000003 2.173909 2.150960 -12.943907 3.219513 2.539404 -1.380896 6.761004 -9.606986 9.133897 -3.474496 5.406989 0.000008 0.000001 85.722740 -121.218359 37.072348 -0.000001 0.000001 -10.686994 72.580268 -14.334827 49.493470 0.000010 0.000003 -13.346895 7.244669 -5.244358 35.510317 -2.411394 -2.842698 7.518600 30.215681 22.799542 13.314338 -4.245501 -0.000004 -0.000010 -730.235851 -126.217634 -724.257359 0.000003 -0.000007 -10.446701 -57.476821 -25.917155 -70.574951 -0.000000 0.000001 -12.218895 -7.792197 -16.098044 -9.524965 2.346706 0.301806 -2.502798 127.260344 -28.952602 122.096776 0.000005 0.000002 -20.597002 28.717370 181.962195 -40.031592 -0.000006 -0.000002 -17.157501 55.703522 -4.731996 34.279842 -1.908598 -0.007898 -2.706004 -169.902281 7.221050 -82.689794 0.000000 0.000003 -20.198507 261.184084 -44.676534 -95.101881 0.000007 -0.000000 -17.295700 -126.922427 -0.379390 -43.201182
60.578701 24.323204 17.483406 -1399.371780 12.690972 -13.357755 -0.825502 0.895802 5.069499 7.441483 -9.244330 -4.089866 -0.000001 0.000001 4.622197 -3.330212 -2.542962 0.258668 -0.000001 0.000010 10.755802 32.907066 -48.977514 6.286918 0.000000 0.000002 2.173904 2.073641 -12.686564 3.193290 2.539404 -1.380896 6.761005 -10.053560 9.506409 -3.137459 5.406992 -0.000003 -0.000003 87.081326 -121.444944 39.942178 -0.000001 -0.000000 -10.686998 72.860476 -14.325951 50.678300 -0.000009 0.000004 -13.346902 6.688838 -5.263391 36.136618 -2.411397 -2.842698 7.518596 30.547253 22.868640 11.757335 -4.245502 0.000004 -0.000008 -732.798756 -125.521487 -726.827696 0.000001 -0.000004 -10.446696 -57.869365 -26.134184 -71.036016 -0.000008 0.000003 -12.218896 -8.476626 -16.085336 -10.236831 2.346696 0.301804 -2.502802 127.862425 -29.017102 122.259198 0.000000 -0.000005 -20.596992 28.994617 181.977618 -39.967764 -0.000002 -0.000004 -17.157503 55.496301 -4.529322 34.554747 -1.908597 -0.007895 -2.706001 -169.114473 6.269114 -82.854969 0.000001 0.000003 -20.198505 260.025274 -42.819880 -95.824351 0.000004 0.000003 -17.295702 -125.268442 -0.432593 -42.530857
60.530697 24.471500 17.396791 -1399.803448 12.256881 -13.057423 -0.825501 0.895802 5.069500 6.946722 -7.393064 -4.105021 -0.000003 -0.000002 4.622198 -3.272880 -2.633113 0.237810 0.000001 0.000017 10.755804 31.461976 -47.886566 5.786160 0.000003 -0.000003 2.173900 1.930795 -12.663442 3.189228 2.539404 -1.380894 6.761005 -10.233666 10.305523 -2.471477 5.407000 0.000003 -0.000002 86.683310 -122.077829 41.188134 -0.000001 0.000001 -10.686996 73.415449 -13.405718 51.449213 -0.000004 -0.000001 -13.346896 5.574640 -5.286320 37.008403 -2.411399 -2.842697 7.518600 30.669564 22.841739 10.114570 -4.245501 -0.000001 -0.000006 -735.760818 -124.892741 -729.821941 -0.000001 -0.000005 -10.446699 -58.866757 -25.725656 -71.976499 0.000011 -0.000002 -12.218899 -8.790701 -15.693106 -10.213177 2.346701 0.301803 -2.502800 128.414523 -29.166445 122.315670 0.000005 -0.000001 -20.597000 29.148584 181.945967 -39.901747 0.000008 -0.000001 -17.157499 55.267125 -4.272546 34.782141 -1.908597 -0.007899 -2.706001 -168.383001 5.404948 -82.898136 -0.000001 0.000007 -20.198502 259.197046 -41.509617 -96.390498 0.000004 -0.000002 -17.295702 -124.072408 -0.486757 -42.064553
60.494499 24.628700 17.324800 -1400.175775 12.011658 -12.953139 -0.825495 0.895799 5.069501 6.937155 -5.794725 -3.854122 -0.000004 -0.000003 4.622198 -3.509681 -2.776840 0.236646 -0.000004 0.000011 10.755802 29.806952 -46.701111 5.220005 -0.000004 0.000001 2.173902 1.880224 -12.437969 3.086004 2.539401 -1.380895 6.760995 -11.050349 11.095950 -1.900387 5.406998 -0.000002 0.000006 87.778934 -122.503609 43.372828 0.000001 0.000005 -10.687004 74.139490 -13.061119 52.417341 0.000005 0.000006 -13.346895 5.136156 -5.127710 37.489279 -2.411406 -2.842700 7.518601 30.884842 22.719007 8.005630 -4.245499 0.000002 -0.000001 -739.093185 -124.234953 -733.120486 -0.000002 -0.000005 -10.446701 -59.539135 -25.648021 -72.933095 0.000000 -0.000004 -12.218887 -9.354636 -15.213512 -10.043302 2.346697 0.301804 -2.502803 128.916023 -29.139096 122.408683 0.000000 -0.000005 -20.596996 29.432528 181.948740 -39.870358 -0.000006 -0.000003 -17.157503 55.165881 -4.038446 35.030947 -1.908589 -0.007902 -2.706002 -167.614973 4.595733 -83.125533 0.000001 0.000010 -20.198502 258.347725 -41.127311 -96.821073 0.000003 0.000004 -17.295698 -123.689699 -0.474856 -41.937215
60.450203 24.770401 17.270697 -1400.527229 11.771811 -12.668285 -0.825496 0.895804 5.069495 6.615064 -4.185579 -3.879518 -0.000002 -0.000006 4.622201 -3.317623 -2.795637 0.274725 0.000001 0.000006 10.755806 28.204489 -45.636568 4.950883 0.000007 0.000003 2.173896 1.776775 -12.357761 3.088384 2.539406 -1.380906 6.761003 -11.468645 11.224074 -1.996312 5.406995 -0.000006 0.000003 88.636649 -122.302925 46.089133 -0.000003 -0.000005 -10.686996 74.676384 -12.859843 53.266098 -0.000004 0.000000 -13.346898 5.112814 -5.253060 37.807102 -2.411401 -2.842704 7.518599 30.623761 22.500743 7.203742 -4.245497 -0.000001 -0.000004 -740.347809 -123.311129 -734.411938 -0.000002 -0.000004 -10.446696 -59.660500 -25.665535 -73.657573 0.000009 0.000001 -12.218889 -9.687758 -15.432596 -10.033559 2.346698 0.301808 -2.502804 129.452247 -29.316125 122.624148 -0.000004 -0.000002 -20.596992 29.623575 181.881941 -39.858235 -0.000003 -0.000001 -17.157501 54.970059 -3.797507 35.136802 -1.908602 -0.007895 -2.706006 -166.904565 3.967735 -83.090207 -0.000000 0.000005 -20.198503 257.641894 -41.382624 -97.211869 0.000002 -0.000000 -17.295704 -123.905424 -0.450881 -41.999718
60.403706 24.908903 17.224199 -1400.902726 11.624939 -12.488761 -0.825503 0.895799 5.069500 6.459260 -2.754408 -3.725522 -0.000011 0.000002 4.622199 -3.788549 -2.535311 0.326975 0.000006 0.000012 10.755808 27.175028 -44.833765 4.714553 0.000005 0.000003 2.173900 1.551007 -12.213708 3.084931 2.539406 -1.380902 6.761008 -10.774754 11.162515 -3.404438 5.406992 -0.000004 -0.000005 88.831029 -120.917011 48.718134 0.000001 -0.000008 -10.686996 75.123584 -12.884026 53.923760 -0.000003 0.000001 -13.346898 5.489441 -6.282222 38.199124 -2.411397 -2.842698 7.518602 30.460035 21.610338 7.805516 -4.245505 -0.000002 -0.000006 -739.732109 -121.708521 -734.061522 -0.000002 -0.000005 -10.446690 -60.033552 -25.607443 -74.403286 0.000003 0.000011 -12.218886 -9.749301 -15.246618 -9.945141 2.346696 0.301802 -2.502799 129.975672 -29.378645 122.766612 0.000000 -0.000002 -20.596992 29.842200 181.849019 -39.880949 -0.000003 0.000003 -17.157499 54.855903 -3.528026 34.914158 -1.908593 -0.007902 -2.706000 -166.142480 3.398070 -83.179970 0.000002 0.000001 -20.198513 256.909970 -41.820237 -97.584579 0.000004 -0.000004 -17.295700 -124.232467 -0.383604 -42.032492
60.349098 25.038500 17.173998 -1401.266529 11.540384 -12.265966 -0.825496 0.895796 5.069500 6.444311 -1.367145 -3.772214 -0.000009 -0.000003 4.622199 -4.335674 -2.202137 0.435779 0.000005 0.000011 10.755803 26.342335 -44.049628 4.813450 0.000005 -0.000000 2.173904 1.367998 -12.098993 2.948386 2.539404 -1.380903 6.760999 -10.473776 11.412165 -4.620767 5.406992 -0.000001 0.000004 88.610291 -119.767586 50.282254 0.000002 0.000000 -10.686996 75.458803 -13.138824 54.273557 0.000010 -0.000007 -13.346898 6.377621 -6.304198 38.657751 -2.411397 -2.842704 7.518604 30.047003 20.439017 9.524368 -4.245502 -0.000006 -0.000002 -736.691582 -119.573089 -731.550307 -0.000002 -0.000002 -10.446695 -59.855564 -25.880085 -74.883482 0.000000 0.000002 -12.218891 -10.082858 -15.149489 -10.113750 2.346703 0.301799 -2.502796 130.485682 -29.276803 122.982733 -0.000000 0.000003 -20.596996 29.913985 181.867379 -39.901569 -0.000009 -0.000000 -17.157505 54.770751 -3.245676 34.679493 -1.908597 -0.007901 -2.705997 -165.457740 3.078332 -83.199395 0.000003 -0.000000 -20.198509 256.495050 -42.731159 -97.826805 0.000003 0.000001 -17.295704 -124.893820 -0.310429 -42.438708
